<svg width="32" height="34" viewBox="0 0 32 34" fill="none" xmlns="http://www.w3.org/2000/svg">
<path d="M17.3333 24.0833H14.6666V21.25H17.3333V24.0833ZM17.3333 18.4167H14.6666V9.91667H17.3333V18.4167Z" fill="#444140"/>
<path d="M16 5.66668C21.8666 5.66668 26.6666 10.7667 26.6666 17C26.6666 23.2333 21.8666 28.3333 16 28.3333C10.1333 28.3333 5.33329 23.2333 5.33329 17C5.33329 10.7667 10.1333 5.66668 16 5.66668ZM16 2.83334C8.66663 2.83334 2.66663 9.20834 2.66663 17C2.66663 24.7917 8.66663 31.1667 16 31.1667C23.3333 31.1667 29.3333 24.7917 29.3333 17C29.3333 9.20834 23.3333 2.83334 16 2.83334Z" fill="#444140"/>
</svg>
