<svg width="32" height="40" viewBox="0 0 32 40" fill="none" xmlns="http://www.w3.org/2000/svg">
<g clip-path="url(#clip0)">
<path d="M16 24C17.1046 24 18 23.1046 18 22C18 20.8954 17.1046 20 16 20C14.8954 20 14 20.8954 14 22C14 23.1046 14.8954 24 16 24Z" fill="#444140"/>
<path d="M16 8C13.321 8 11.144 10.179 11.144 12.856C11.144 13.015 11.27 13.143 11.429 13.143H14.285C14.444 13.143 14.571 13.015 14.571 12.856C14.571 12.069 15.212 11.428 16 11.428C16.788 11.428 17.43 12.069 17.43 12.856C17.43 13.405 17.137 13.75 16.36 14.526C15.485 15.401 14.286 16.598 14.286 18.62V19.114C14.286 19.273 14.414 19.4 14.572 19.4H17.43C17.587 19.4 17.715 19.273 17.715 19.114V18.62C17.715 18.07 18.008 17.726 18.785 16.949C19.66 16.074 20.855 14.876 20.855 12.856C20.855 10.179 18.68 8 16 8Z" fill="#444140"/>
<path d="M16 2C8.268 2 2 8.268 2 16C2 23.732 8.268 30 16 30C23.732 30 30 23.732 30 16C30 8.268 23.732 2 16 2ZM16 27C9.935 27 5 22.064 5 16C5 9.935 9.935 5 16 5C22.064 5 27 9.935 27 16C27 22.064 22.064 27 16 27Z" fill="#444140"/>
</g>
<defs>
<clipPath id="clip0">
<rect width="32" height="40" fill="white"/>
</clipPath>
</defs>
</svg>
