<svg width="123" height="21" viewBox="0 0 123 21" fill="none" xmlns="http://www.w3.org/2000/svg">
<rect x="2" y="2" width="12" height="18" rx="1" fill="#D21F3C"/>
<rect x="1" y="1" width="12" height="18" rx="1" fill="white"/>
<rect width="12" height="18" rx="1" fill="#D21F3C"/>
<path d="M5.98037 2.45987L6.09905 10.8393L2.41269 10.0428L5.98037 2.45987Z" fill="white"/>
<path d="M5.17501 16.1015L8.74269 8.51852L5.05633 7.72201L5.17501 16.1015Z" fill="white"/>
<path d="M30.44 18.2C30.0773 18.648 29.6347 18.9893 29.112 19.224C28.6 19.4587 28.0347 19.576 27.416 19.576C26.584 19.576 25.832 19.3947 25.16 19.032C24.488 18.68 23.72 18.0507 22.856 17.144C21.8427 17.016 20.936 16.6907 20.136 16.168C19.3467 15.6453 18.728 14.9733 18.28 14.152C17.8427 13.32 17.624 12.4027 17.624 11.4C17.624 10.3013 17.8853 9.31467 18.408 8.44C18.9413 7.55467 19.672 6.86133 20.6 6.36C21.5387 5.85867 22.5893 5.608 23.752 5.608C24.9147 5.608 25.96 5.85867 26.888 6.36C27.816 6.86133 28.5467 7.55467 29.08 8.44C29.6133 9.31467 29.88 10.3013 29.88 11.4C29.88 12.7013 29.512 13.8427 28.776 14.824C28.0507 15.8053 27.0853 16.488 25.88 16.872C26.1467 17.1493 26.4027 17.3467 26.648 17.464C26.904 17.592 27.176 17.656 27.464 17.656C28.1573 17.656 28.7653 17.3787 29.288 16.824L30.44 18.2ZM20.248 11.4C20.248 12.0933 20.3973 12.712 20.696 13.256C21.0053 13.8 21.4267 14.2267 21.96 14.536C22.4933 14.8347 23.0907 14.984 23.752 14.984C24.4133 14.984 25.0107 14.8347 25.544 14.536C26.0773 14.2267 26.4933 13.8 26.792 13.256C27.1013 12.712 27.256 12.0933 27.256 11.4C27.256 10.7067 27.1013 10.088 26.792 9.544C26.4933 9 26.0773 8.57867 25.544 8.28C25.0107 7.97067 24.4133 7.816 23.752 7.816C23.0907 7.816 22.4933 7.97067 21.96 8.28C21.4267 8.57867 21.0053 9 20.696 9.544C20.3973 10.088 20.248 10.7067 20.248 11.4ZM40.324 8.392V17H37.956V15.976C37.6253 16.3493 37.2307 16.6373 36.772 16.84C36.3133 17.032 35.8173 17.128 35.284 17.128C34.1533 17.128 33.2573 16.8027 32.596 16.152C31.9347 15.5013 31.604 14.536 31.604 13.256V8.392H34.1V12.888C34.1 14.2747 34.6813 14.968 35.844 14.968C36.4413 14.968 36.9213 14.776 37.284 14.392C37.6467 13.9973 37.828 13.416 37.828 12.648V8.392H40.324ZM42.6364 8.392H45.1324V17H42.6364V8.392ZM43.8844 7.192C43.4257 7.192 43.0524 7.05867 42.7644 6.792C42.4764 6.52533 42.3324 6.19467 42.3324 5.8C42.3324 5.40533 42.4764 5.07467 42.7644 4.808C43.0524 4.54133 43.4257 4.408 43.8844 4.408C44.343 4.408 44.7164 4.536 45.0044 4.792C45.2924 5.048 45.4364 5.368 45.4364 5.752C45.4364 6.168 45.2924 6.51467 45.0044 6.792C44.7164 7.05867 44.343 7.192 43.8844 7.192ZM51.6089 17.128C50.6915 17.128 49.8649 16.9413 49.1289 16.568C48.4035 16.184 47.8329 15.656 47.4169 14.984C47.0115 14.312 46.8089 13.5493 46.8089 12.696C46.8089 11.8427 47.0115 11.08 47.4169 10.408C47.8329 9.736 48.4035 9.21333 49.1289 8.84C49.8649 8.456 50.6915 8.264 51.6089 8.264C52.5155 8.264 53.3049 8.456 53.9769 8.84C54.6595 9.21333 55.1555 9.752 55.4649 10.456L53.5289 11.496C53.0809 10.7067 52.4355 10.312 51.5929 10.312C50.9422 10.312 50.4035 10.5253 49.9769 10.952C49.5502 11.3787 49.3369 11.96 49.3369 12.696C49.3369 13.432 49.5502 14.0133 49.9769 14.44C50.4035 14.8667 50.9422 15.08 51.5929 15.08C52.4462 15.08 53.0915 14.6853 53.5289 13.896L55.4649 14.952C55.1555 15.6347 54.6595 16.168 53.9769 16.552C53.3049 16.936 52.5155 17.128 51.6089 17.128ZM60.5355 13.624L59.3355 14.808V17H56.8395V5.128H59.3355V11.848L62.9835 8.392H65.9595L62.3755 12.04L66.2795 17H63.2555L60.5355 13.624ZM72.1093 5.8H77.1973C78.4133 5.8 79.4853 6.03467 80.4133 6.504C81.3519 6.96267 82.0773 7.61333 82.5893 8.456C83.1119 9.29867 83.3733 10.28 83.3733 11.4C83.3733 12.52 83.1119 13.5013 82.5893 14.344C82.0773 15.1867 81.3519 15.8427 80.4133 16.312C79.4853 16.7707 78.4133 17 77.1973 17H72.1093V5.8ZM77.0693 14.872C78.1893 14.872 79.0799 14.5627 79.7413 13.944C80.4133 13.3147 80.7493 12.4667 80.7493 11.4C80.7493 10.3333 80.4133 9.49067 79.7413 8.872C79.0799 8.24267 78.1893 7.928 77.0693 7.928H74.7013V14.872H77.0693ZM93.584 12.728C93.584 12.76 93.568 12.984 93.536 13.4H87.024C87.1413 13.9333 87.4187 14.3547 87.856 14.664C88.2933 14.9733 88.8373 15.128 89.488 15.128C89.936 15.128 90.3307 15.064 90.672 14.936C91.024 14.7973 91.3493 14.584 91.648 14.296L92.976 15.736C92.1653 16.664 90.9813 17.128 89.424 17.128C88.4533 17.128 87.5947 16.9413 86.848 16.568C86.1013 16.184 85.5253 15.656 85.12 14.984C84.7147 14.312 84.512 13.5493 84.512 12.696C84.512 11.8533 84.7093 11.096 85.104 10.424C85.5093 9.74133 86.0587 9.21333 86.752 8.84C87.456 8.456 88.24 8.264 89.104 8.264C89.9467 8.264 90.7093 8.44533 91.392 8.808C92.0747 9.17067 92.608 9.69333 92.992 10.376C93.3867 11.048 93.584 11.832 93.584 12.728ZM89.12 10.152C88.5547 10.152 88.08 10.312 87.696 10.632C87.312 10.952 87.0773 11.3893 86.992 11.944H91.232C91.1467 11.4 90.912 10.968 90.528 10.648C90.144 10.3173 89.6747 10.152 89.12 10.152ZM99.4058 17.128C98.4884 17.128 97.6618 16.9413 96.9258 16.568C96.2004 16.184 95.6298 15.656 95.2138 14.984C94.8084 14.312 94.6058 13.5493 94.6058 12.696C94.6058 11.8427 94.8084 11.08 95.2138 10.408C95.6298 9.736 96.2004 9.21333 96.9258 8.84C97.6618 8.456 98.4884 8.264 99.4058 8.264C100.312 8.264 101.102 8.456 101.774 8.84C102.456 9.21333 102.952 9.752 103.262 10.456L101.326 11.496C100.878 10.7067 100.232 10.312 99.3898 10.312C98.7391 10.312 98.2004 10.5253 97.7738 10.952C97.3471 11.3787 97.1338 11.96 97.1338 12.696C97.1338 13.432 97.3471 14.0133 97.7738 14.44C98.2004 14.8667 98.7391 15.08 99.3898 15.08C100.243 15.08 100.888 14.6853 101.326 13.896L103.262 14.952C102.952 15.6347 102.456 16.168 101.774 16.552C101.102 16.936 100.312 17.128 99.4058 17.128ZM108.332 13.624L107.132 14.808V17H104.636V5.128H107.132V11.848L110.78 8.392H113.756L110.172 12.04L114.076 17H111.052L108.332 13.624ZM117.814 17.128C117.099 17.128 116.4 17.0427 115.718 16.872C115.035 16.6907 114.491 16.4667 114.086 16.2L114.918 14.408C115.302 14.6533 115.766 14.856 116.31 15.016C116.854 15.1653 117.387 15.24 117.91 15.24C118.966 15.24 119.494 14.9787 119.494 14.456C119.494 14.2107 119.35 14.0347 119.062 13.928C118.774 13.8213 118.331 13.7307 117.734 13.656C117.03 13.5493 116.448 13.4267 115.99 13.288C115.531 13.1493 115.131 12.904 114.79 12.552C114.459 12.2 114.294 11.6987 114.294 11.048C114.294 10.504 114.448 10.024 114.758 9.608C115.078 9.18133 115.536 8.85067 116.134 8.616C116.742 8.38133 117.456 8.264 118.278 8.264C118.886 8.264 119.488 8.33333 120.086 8.472C120.694 8.6 121.195 8.78133 121.59 9.016L120.758 10.792C120 10.3653 119.174 10.152 118.278 10.152C117.744 10.152 117.344 10.2267 117.078 10.376C116.811 10.5253 116.678 10.7173 116.678 10.952C116.678 11.2187 116.822 11.4053 117.11 11.512C117.398 11.6187 117.856 11.72 118.486 11.816C119.19 11.9333 119.766 12.0613 120.214 12.2C120.662 12.328 121.051 12.568 121.382 12.92C121.712 13.272 121.878 13.7627 121.878 14.392C121.878 14.9253 121.718 15.4 121.398 15.816C121.078 16.232 120.608 16.5573 119.99 16.792C119.382 17.016 118.656 17.128 117.814 17.128Z" fill="#D21F3C"/>
</svg>
